# xmcd CD database file
#
# Track frame offsets:
#	150
#	12454
#	24640
#	43887
#	55782
#	67253
#	79466
#	93044
#	104263
#	121304
#
# Disc length: 1800 seconds
#
# Revision: 0
# Processed by: cddbd v1.5.2PL0 Copyright (c) Steve Scherf et al.
# Submitted via: CDex 1.70beta2
#
DISCID=8507060a
DTITLE=Mike Siler - Man of Clay
DYEAR=1900
DGENRE=Country
TTITLE0=Leavin' And Sayin' Goodbye
TTITLE1=All By My Lonesome
TTITLE2=Man of Clay
TTITLE3=Jambalaya
TTITLE4=Apartment #9
TTITLE5=Slide Off of Your Satin Sheets
TTITLE6=Four In the Morning
TTITLE7=Walk On By
TTITLE8=I'm Not Even Close
TTITLE9=Playboy
EXTD=
EXTT0=
EXTT1=
EXTT2=
EXTT3=
EXTT4=
EXTT5=
EXTT6=
EXTT7=
EXTT8=
EXTT9=
PLAYORDER=
